HIERARCHY
ROOT Hips
{
    OFFSET 0.000000 0.000000 0.000000
    CHANNELS 6 Xposition Yposition Zposition Zrotation Xrotation Yrotation
    JOINT Spine
    {
        OFFSET -0.000000 7.925200 0.000000
        CHANNELS 3 Zrotation Xrotation Yrotation
        JOINT Spine1
        {
            OFFSET -0.000000 23.364719 0.000000
            CHANNELS 3 Zrotation Xrotation Yrotation
            JOINT Neck
            {
                OFFSET -0.000000 23.268766 2.115342
                CHANNELS 3 Zrotation Xrotation Yrotation
                JOINT Head
                {
                    OFFSET -0.000000 13.530829 -1.932976
                    CHANNELS 3 Zrotation Xrotation Yrotation
                    End Site
                    {
                        OFFSET -0.000000 24.162195 0.000000
                    }
                }
            }
            JOINT LeftShoulder
            {
                OFFSET 3.858291 22.792089 -0.033814
                CHANNELS 3 Zrotation Xrotation Yrotation
                JOINT LeftArm
                {
                    OFFSET 7.057024 0.000000 0.000000
                    CHANNELS 3 Zrotation Xrotation Yrotation
                    JOINT LeftForeArm
                    {
                        OFFSET 34.734173 0.000000 0.000000
                        CHANNELS 3 Zrotation Xrotation Yrotation
                        JOINT LeftHand
                        {
                            OFFSET 23.943203 0.000000 0.000000
                            CHANNELS 3 Zrotation Xrotation Yrotation
                            End Site
                            {
                                OFFSET 14.497317 0.000000 0.000000
                            }
                        }
                    }
                }
            }
            JOINT RightShoulder
            {
                OFFSET -3.868823 22.792089 -0.033814
                CHANNELS 3 Zrotation Xrotation Yrotation
                JOINT RightArm
                {
                    OFFSET -7.057024 0.000000 0.000000
                    CHANNELS 3 Zrotation Xrotation Yrotation
                    JOINT RightForeArm
                    {
                        OFFSET -34.734173 0.000000 0.000000
                        CHANNELS 3 Zrotation Xrotation Yrotation
                        JOINT RightHand
                        {
                            OFFSET -23.943203 0.000000 0.000000
                            CHANNELS 3 Zrotation Xrotation Yrotation
                            End Site
                            {
                                OFFSET -14.497317 0.000000 0.000000
                            }
                        }
                    }
                }
            }
        }
    }
    JOINT LeftUpLeg
    {
        OFFSET 9.664878 0.000000 0.000000
        CHANNELS 3 Zrotation Xrotation Yrotation
        JOINT LeftLeg
        {
            OFFSET -0.000000 -38.728706 0.000000
            CHANNELS 3 Zrotation Xrotation Yrotation
            JOINT LeftFoot
            {
                OFFSET -0.000000 -40.242161 0.000000
                CHANNELS 3 Zrotation Xrotation Yrotation
                JOINT LeftToeBase
                {
                    OFFSET -0.000000 -6.282171 14.497317
                    CHANNELS 3 Zrotation Xrotation Yrotation
                    End Site
                    {
                        OFFSET -0.000000 0.000000 3.865951
                    }
                }
            }
        }
    }
    JOINT RightUpLeg
    {
        OFFSET -9.664878 0.000000 0.000000
        CHANNELS 3 Zrotation Xrotation Yrotation
        JOINT RightLeg
        {
            OFFSET -0.000000 -38.728706 0.000000
            CHANNELS 3 Zrotation Xrotation Yrotation
            JOINT RightFoot
            {
                OFFSET -0.000000 -40.242161 0.000000
                CHANNELS 3 Zrotation Xrotation Yrotation
                JOINT RightToeBase
                {
                    OFFSET -0.000000 -6.282171 14.497317
                    CHANNELS 3 Zrotation Xrotation Yrotation
                    End Site
                    {
                        OFFSET -0.000000 0.000000 3.865951
                    }
                }
            }
        }
    }
}
MOTION
Frames:    4
Frame Time:    0.008333
65.518158    131.609222    27.831802    -3.474621    3.802212    83.723709    -2.410254    -2.002372    1.961236    -2.431257    2.110989    2.048167    -3.588377    16.932129    7.267779    -2.369203    0.806690    7.221694    14.729453    -2.265185    3.756725    -12.508803    6.781968    -6.836239    5.422291    -1.358667    -2.591995    -0.594777    -1.180810    -10.590968    -12.141924    0.785860    5.310978    13.456915    6.891406    8.563675    -2.778415    -1.291185    2.266984    1.955582    -1.172811    3.716164    -0.549021    -18.968138    -0.195994    -7.046182    34.090012    1.749750    10.298697    -18.900864    13.064399    0.000000    0.000000    0.000000    1.064484    -5.456234    -1.008384    -2.116583    6.437029    4.596757    -5.742042    -4.885819    -3.545178    0.000000    0.000000    0.000000    
65.530235    131.626266    27.815598    -3.417604    3.809007    83.452232    -2.446632    -1.940688    2.021399    -2.372435    2.019158    2.104655    -3.598582    17.161882    7.439624    -2.470990    0.561334    7.373718    14.558773    -2.205714    3.803736    -12.381990    6.778599    -6.774873    5.475184    -1.437654    -2.609540    -0.682866    -1.250546    -10.445952    -12.212010    0.901844    5.447866    13.505997    6.762199    8.611959    -2.798259    -1.261195    2.245102    1.999861    -1.140894    3.751595    -0.570525    -18.785297    -0.260767    -6.759181    33.783024    1.830332    10.807875    -18.972326    13.437200    0.000000    0.000000    0.000000    1.043367    -5.387237    -1.038404    -2.119132    6.348404    4.702803    -5.532932    -4.822010    -3.409118    0.000000    0.000000    0.000000    
65.528748    131.657257    27.803642    -3.457665    3.815321    83.196541    -2.486209    -1.984441    2.091123    -2.338484    1.940948    2.173834    -3.600996    17.493504    7.559488    -2.525232    0.121986    7.470047    14.507748    -2.176965    3.822574    -12.340001    6.778816    -6.719512    5.451640    -1.323144    -2.597279    -0.261861    -1.174985    -10.717337    -12.191748    1.007218    5.534116    13.502172    6.638586    8.656701    -2.812795    -1.240919    2.252578    1.966043    -1.121554    3.734501    -0.559240    -18.650555    -0.302019    -6.452688    33.345829    1.885098    10.787300    -18.933155    13.657980    0.000000    0.000000    0.000000    1.038867    -5.454734    -1.135212    -2.133821    6.304436    4.829773    -5.288428    -4.712014    -3.220594    0.000000    0.000000    0.000000    
65.543091    131.674438    27.789005    -3.443411    3.810695    82.960251    -2.484955    -1.989551    2.148914    -2.388205    1.894644    2.231566    -3.585994    17.527163    7.586771    -2.467253    0.113384    7.505447    14.532343    -2.150590    3.883058    -12.310053    6.802279    -6.690700    5.470858    -1.313891    -2.596793    -0.269494    -1.164638    -10.686632    -12.123968    1.012323    5.579405    13.497355    6.612479    8.718109    -2.830364    -1.220078    2.278375    2.013073    -1.097917    3.752847    -0.530008    -18.397869    -0.283170    -6.101669    32.818928    1.810498    10.918293    -18.847116    13.822114    0.000000    0.000000    0.000000    1.034839    -5.407010    -1.101248    -2.124885    6.200885    4.785047    -5.070620    -4.662531    -3.052585    0.000000    0.000000    0.000000    
